HIERARCHY
ROOT Hips
{
  OFFSET 0.854965 38.8999 93.6743
  CHANNELS 6 Xposition Yposition Zposition Zrotation Xrotation Yrotation
  JOINT LeftHip
  {
    OFFSET 3.43 0 0
    CHANNELS 6 Xposition Yposition Zposition Zrotation Xrotation Yrotation
    JOINT LeftKnee
    {
      OFFSET 0 -18.47 0
      CHANNELS 6 Xposition Yposition Zposition Zrotation Xrotation Yrotation
      JOINT LeftAnkle
      {
        OFFSET 0 -17.95 0
        CHANNELS 6 Xposition Yposition Zposition Zrotation Xrotation Yrotation
        End Site
        {
          OFFSET 0 -3.12 0
        }
      }
    }
  }
  JOINT RightHip
  {
    OFFSET -3.43 0 0
    CHANNELS 6 Xposition Yposition Zposition Zrotation Xrotation Yrotation
    JOINT RightKnee
    {
      OFFSET 0 -18.47 0
      CHANNELS 6 Xposition Yposition Zposition Zrotation Xrotation Yrotation
      JOINT RightAnkle
      {
        OFFSET 0 -17.95 0
        CHANNELS 6 Xposition Yposition Zposition Zrotation Xrotation Yrotation
        End Site
        {
          OFFSET 0 -3.12 0
        }
      }
    }
  }
  JOINT Chest
  {
    OFFSET 0 4.57 0
    CHANNELS 6 Xposition Yposition Zposition Zrotation Xrotation Yrotation
    JOINT CS_BVH
    {
      OFFSET 0 6.57 0
      CHANNELS 6 Xposition Yposition Zposition Zrotation Xrotation Yrotation
      JOINT LeftCollar
      {
        OFFSET 1.06 4.19 1.76
        CHANNELS 6 Xposition Yposition Zposition Zrotation Xrotation Yrotation
        JOINT LeftShoulder
        {
          OFFSET 5.81 0 0
          CHANNELS 6 Xposition Yposition Zposition Zrotation Xrotation Yrotation
          JOINT LeftElbow
          {
            OFFSET 0 -12.08 0
            CHANNELS 6 Xposition Yposition Zposition Zrotation Xrotation Yrotation
            JOINT LeftWrist
            {
              OFFSET 0 -9.82 0
              CHANNELS 6 Xposition Yposition Zposition Zrotation Xrotation Yrotation
              End Site
              {
                OFFSET 0 -7.37 0
              }
            }
          }
        }
      }
      JOINT RightCollar
      {
        OFFSET -1.06 4.19 1.76
        CHANNELS 6 Xposition Yposition Zposition Zrotation Xrotation Yrotation
        JOINT RightShoulder
        {
          OFFSET -6.06 0 0
          CHANNELS 6 Xposition Yposition Zposition Zrotation Xrotation Yrotation
          JOINT RightElbow
          {
            OFFSET 0 -11.08 0
            CHANNELS 6 Xposition Yposition Zposition Zrotation Xrotation Yrotation
            JOINT RightWrist
            {
              OFFSET 0 -9.82 0
              CHANNELS 6 Xposition Yposition Zposition Zrotation Xrotation Yrotation
              End Site
              {
                OFFSET 0 -7.14001 0
              }
            }
          }
        }
      }
      JOINT Neck
      {
        OFFSET 0 4.05 0
        CHANNELS 6 Xposition Yposition Zposition Zrotation Xrotation Yrotation
        JOINT Head
        {
          OFFSET 0 5.19 0
          CHANNELS 6 Xposition Yposition Zposition Zrotation Xrotation Yrotation
          End Site
          {
            OFFSET 0 4.14001 0
          }
        }
      }
    }
  }
}
MOTION
Frames:	10
Frame Time:	0.0333333
6.22198 38.4414 -74.466 0.614839 -6.80226 -4.66059 3.43 2.13163e-014 -8.88178e-016 -3.85204 -15.2061 0.843402 -5.28466e-014 -18.47 3.95239e-014 -6.9084 32.0913 0.263406 -6.27942e-013 -17.95 3.95239e-013 0.81627 -9.64063 -0.316887 -3.43 2.13163e-014 6.21725e-015 -6.13574 -6.29619 -2.5484 -9.23706e-014 -18.47 -9.23706e-014 4.29707 74.0718 5.12091 -3.23297e-013 -17.95 -8.8729e-013 -2.6818 -9.87388 0.613591 1.88738e-015 4.57 1.06581e-014 -3.19345 -2.44936 2.27481 4.32987e-015 6.57 -1.77636e-015 -6.1225 10.1001 5.89952 1.06 4.19 1.76 -18.46 -1.53935 11.0226 5.81 -7.10543e-015 -1.15463e-014 27.2787 -16.7449 -18.1493 2.67164e-012 -12.08 -9.43245e-013 2.08273 -0.000286803 2.23649 5.24807e-011 -9.82 -1.44627e-011 -1.60555e-010 7.13487e-010 1.28578e-009 -1.06 4.19 1.76 14.103 0.308675 -2.19071 -6.06 0 7.54952e-015 -26.4473 -25.8918 49.4405 1.54188e-012 -11.08 7.30083e-013 14.473 -21.0846 5.27518 2.68372e-011 -9.82 1.13869e-011 3.2844e-010 1.94701e-010 -1.83818e-009 1.0103e-014 4.05 -8.88178e-016 26.2289 -32.5395 8.75809 3.27516e-014 5.19 -8.88178e-016 -7.46996 8.39319 10.8951 
6.43318 38.4824 -73.1774 0.658818 -6.43062 -3.84789 3.43 2.13163e-014 -8.88178e-016 -4.03324 -14.4821 2.89555 -5.28466e-014 -18.47 3.95239e-014 -6.55831 33.5772 0.132173 -6.27942e-013 -17.95 3.95239e-013 0.745063 -9.80707 -0.317045 -3.43 2.13163e-014 6.21725e-015 -6.60591 -12.4605 -4.81162 -9.23706e-014 -18.47 -9.23706e-014 1.55115 78.5952 7.2177 -3.23297e-013 -17.95 -8.8729e-013 -2.55001 -8.84607 0.588664 1.88738e-015 4.57 1.06581e-014 -4.71608 -2.8517 1.3558 4.32987e-015 6.57 -1.77636e-015 -3.96213 11.389 4.27549 1.06 4.19 1.76 -18.5081 -1.53557 11.0328 5.81 -7.10543e-015 -1.15463e-014 24.9557 -20.4697 -21.3444 2.67164e-012 -12.08 -9.43245e-013 2.04247 -0.000286817 2.16582 5.24807e-011 -9.82 -1.44627e-011 -1.60555e-010 7.13487e-010 1.28578e-009 -1.06 4.19 1.76 14.1763 0.362131 -1.70266 -6.06 0 7.54952e-015 -28.3549 -22.9686 46.5789 1.54188e-012 -11.08 7.30083e-013 16.7204 -19.035 5.4751 2.68372e-011 -9.82 1.13869e-011 3.2844e-010 1.94701e-010 -1.83818e-009 1.0103e-014 4.05 -8.88178e-016 28.5446 -33.4377 10.7705 3.27516e-014 5.19 -8.88178e-016 -9.22229 8.41317 12.9255 
6.5975 38.6167 -71.9053 0.391342 -6.32442 -2.64092 3.43 2.13163e-014 -8.88178e-016 -4.09019 -12.8911 4.34776 -5.28466e-014 -18.47 3.95239e-014 -5.73051 34.1023 -0.352021 -6.27942e-013 -17.95 3.95239e-013 0.665356 -10.0789 -0.317308 -3.43 2.13163e-014 6.21725e-015 -6.68366 -17.0243 -6.49323 -9.23706e-014 -18.47 -9.23706e-014 0.0125345 78.3561 9.73963 -3.23297e-013 -17.95 -8.8729e-013 -2.49869 -8.26335 0.581072 1.88738e-015 4.57 1.06581e-014 -5.39882 -2.38612 0.214761 4.32987e-015 6.57 -1.77636e-015 -2.41946 11.901 2.35748 1.06 4.19 1.76 -18.2892 -1.47456 10.7712 5.81 -7.10543e-015 -1.15463e-014 23.6554 -23.9236 -25.1669 2.67164e-012 -12.08 -9.43245e-013 1.44126 -0.000286924 1.49942 5.24807e-011 -9.82 -1.44627e-011 -1.60555e-010 7.13487e-010 1.28578e-009 -1.06 4.19 1.76 14.7911 0.38811 -1.57191 -6.06 0 7.54952e-015 -30.0217 -19.9018 40.2617 1.54188e-012 -11.08 7.30083e-013 18.0367 -14.9351 4.97882 2.68372e-011 -9.82 1.13869e-011 3.2844e-010 1.94701e-010 -1.83818e-009 1.0103e-014 4.05 -8.88178e-016 31.8496 -33.3935 12.7314 3.27516e-014 5.19 -8.88178e-016 -11.3467 8.56204 15.2662 
6.71892 38.8173 -70.6601 0.324146 -6.38159 -1.0214 3.43 2.13163e-014 -8.88178e-016 -4.75155 -10.3615 3.38143 -5.28466e-014 -18.47 3.95239e-014 -5.06342 33.0608 -0.113636 -6.27942e-013 -17.95 3.95239e-013 0.500396 -10.5663 -0.298841 -3.43 2.13163e-014 6.21725e-015 -7.03031 -19.9304 -7.66904 -9.23706e-014 -18.47 -9.23706e-014 3.68698 74.1464 7.87409 -3.23297e-013 -17.95 -8.8729e-013 -2.38482 -8.01964 0.564052 1.88738e-015 4.57 1.06581e-014 -6.71714 -1.0335 -1.06242 4.32987e-015 6.57 -1.77636e-015 -0.0990709 11.0119 -0.0990555 1.06 4.19 1.76 -17.8501 -1.36162 10.3421 5.81 -7.10543e-015 -1.15463e-014 22.776 -26.1749 -28.9513 2.67164e-012 -12.08 -9.43245e-013 0.423272 -0.000287015 0.394413 5.24807e-011 -9.82 -1.44627e-011 -1.60555e-010 7.13487e-010 1.28578e-009 -1.06 4.19 1.76 15.0214 0.382764 -1.61048 -6.06 0 7.54952e-015 -31.2412 -16.9908 32.3765 1.54188e-012 -11.08 7.30083e-013 18.2073 -9.54367 3.82834 2.68372e-011 -9.82 1.13869e-011 3.2844e-010 1.94701e-010 -1.83818e-009 1.0103e-014 4.05 -8.88178e-016 33.8831 -30.795 13.5107 3.27516e-014 5.19 -8.88178e-016 -13.5542 7.63037 17.3756 
6.81115 39.0534 -69.4317 0.629008 -6.60792 0.790326 3.43 2.13163e-014 -8.88178e-016 -5.99331 -7.41645 2.12918 -5.28466e-014 -18.47 3.95239e-014 -3.88075 31.2443 0.736209 -6.27942e-013 -17.95 3.95239e-013 0.199524 -11.3037 -0.256628 -3.43 2.13163e-014 6.21725e-015 -7.08868 -20.9336 -7.20044 -9.23706e-014 -18.47 -9.23706e-014 6.85469 65.3569 5.83901 -3.23297e-013 -17.95 -8.8729e-013 -2.13729 -8.05126 0.511374 1.88738e-015 4.57 1.06581e-014 -8.50586 0.824019 -2.36729 4.32987e-015 6.57 -1.77636e-015 2.3376 9.32947 -2.65007 1.06 4.19 1.76 -17.1368 -1.27275 10.1377 5.81 -7.10543e-015 -1.15463e-014 22.6526 -27.7271 -32.9299 2.67164e-012 -12.08 -9.43245e-013 -0.0721589 -1.28965 -1.17057 5.24807e-011 -9.82 -1.44627e-011 -1.60555e-010 7.13487e-010 1.28578e-009 -1.06 4.19 1.76 14.9577 0.357454 -1.79824 -6.06 0 7.54952e-015 -32.1442 -14.1174 24.8184 1.54188e-012 -11.08 7.30083e-013 15.5018 -5.71814 3.06587 2.68372e-011 -9.82 1.13869e-011 3.2844e-010 1.94701e-010 -1.83818e-009 1.0103e-014 4.05 -8.88178e-016 35.0483 -27.2143 13.7106 3.27516e-014 5.19 -8.88178e-016 -15.1007 6.28541 19.1197 
6.82122 39.2211 -68.1545 1.1088 -6.72223 2.11393 3.43 2.13163e-014 -8.88178e-016 -6.93583 -4.74702 2.0126 -5.28466e-014 -18.47 3.95239e-014 -2.3276 29.93 1.25723 -6.27942e-013 -17.95 3.95239e-013 -0.155482 -12.2791 -0.212677 -3.43 2.13163e-014 6.21725e-015 -6.90052 -20.5515 -4.55091 -9.23706e-014 -18.47 -9.23706e-014 9.81603 53.2824 3.63829 -3.23297e-013 -17.95 -8.8729e-013 -1.72744 -8.16215 0.452969 1.88738e-015 4.57 1.06581e-014 -11.0544 1.89497 -3.36737 4.32987e-015 6.57 -1.77636e-015 5.53123 8.27265 -4.89494 1.06 4.19 1.76 -16.4199 -1.23624 10.2253 5.81 -7.10543e-015 -1.15463e-014 23.1699 -29.3661 -36.8551 2.67164e-012 -12.08 -9.43245e-013 -0.498541 -4.55812 -2.89625 5.24807e-011 -9.82 -1.44627e-011 -1.60555e-010 7.13487e-010 1.28578e-009 -1.06 4.19 1.76 14.6671 0.387995 -1.50967 -6.06 0 7.54952e-015 -33.6613 -11.2105 18.8647 1.54188e-012 -11.08 7.30083e-013 13.0791 -2.78932 2.13591 2.68372e-011 -9.82 1.13869e-011 3.2844e-010 1.94701e-010 -1.83818e-009 1.0103e-014 4.05 -8.88178e-016 35.878 -24.0012 13.9077 3.27516e-014 5.19 -8.88178e-016 -16.6635 5.04214 20.7561 
6.80262 39.1553 -66.8296 2.26577 -6.25702 3.04933 3.43 2.13163e-014 -8.88178e-016 -7.72804 -2.94643 2.27267 -5.28466e-014 -18.47 3.95239e-014 -2.70405 29.7749 1.59981 -6.27942e-013 -17.95 3.95239e-013 -0.26036 -13.9905 -0.166133 -3.43 2.13163e-014 6.21725e-015 -6.62617 -19.597 -1.52711 -9.23706e-014 -18.47 -9.23706e-014 8.85766 38.7494 1.231 -3.23297e-013 -17.95 -8.8729e-013 -0.913736 -8.02375 0.379548 1.88738e-015 4.57 1.06581e-014 -14.6953 1.87271 -4.0493 4.32987e-015 6.57 -1.77636e-015 8.95606 6.93535 -6.57048 1.06 4.19 1.76 -15.4941 -1.14933 10.1029 5.81 -7.10543e-015 -1.15463e-014 23.9378 -30.1896 -40.5201 2.67164e-012 -12.08 -9.43245e-013 -1.03152 -8.10531 -4.69337 5.24807e-011 -9.82 -1.44627e-011 -1.60555e-010 7.13487e-010 1.28578e-009 -1.06 4.19 1.76 14.1806 0.427856 -1.09963 -6.06 0 7.54952e-015 -35.4875 -8.0356 15.4697 1.54188e-012 -11.08 7.30083e-013 11.8717 -1.22185 1.52471 2.68372e-011 -9.82 1.13869e-011 3.2844e-010 1.94701e-010 -1.83818e-009 1.0103e-014 4.05 -8.88178e-016 36.0973 -20.4901 13.6702 3.27516e-014 5.19 -8.88178e-016 -17.9923 3.51395 21.9473 
6.83802 38.8818 -65.5033 3.81441 -5.41769 4.02239 3.43 2.13163e-014 -8.88178e-016 -8.84082 -2.22592 2.99089 -5.28466e-014 -18.47 3.95239e-014 -2.90431 31.0999 1.01657 -6.27942e-013 -17.95 3.95239e-013 -0.0779592 -16.1998 -0.105731 -3.43 2.13163e-014 6.21725e-015 -5.88186 -17.6873 -1.00959 -9.23706e-014 -18.47 -9.23706e-014 3.29575 21.6402 -0.59104 -3.23297e-013 -17.95 -8.8729e-013 0.337273 -6.75702 0.228328 1.88738e-015 4.57 1.06581e-014 -18.1879 0.778613 -4.94568 4.32987e-015 6.57 -1.77636e-015 11.6032 6.47779 -7.84531 1.06 4.19 1.76 -14.4525 -1.07083 10.074 5.81 -7.10543e-015 -1.15463e-014 25.3774 -31.5688 -44.2135 2.67164e-012 -12.08 -9.43245e-013 -1.68784 -11.8369 -6.46718 5.24807e-011 -9.82 -1.44627e-011 -1.60555e-010 7.13487e-010 1.28578e-009 -1.06 4.19 1.76 13.9669 0.451372 -0.853027 -6.06 0 7.54952e-015 -37.4599 -5.16425 14.686 1.54188e-012 -11.08 7.30083e-013 11.3639 -1.13559 1.19189 2.68372e-011 -9.82 1.13869e-011 3.2844e-010 1.94701e-010 -1.83818e-009 1.0103e-014 4.05 -8.88178e-016 36.5963 -18.7901 13.8766 3.27516e-014 5.19 -8.88178e-016 -19.1043 2.94496 23.0008 
6.79114 38.3672 -63.9876 5.78337 -4.39103 5.75305 3.43 2.13163e-014 -8.88178e-016 -10.0924 -1.81846 4.12418 -5.28466e-014 -18.47 3.95239e-014 -2.52602 33.8334 -0.621965 -6.27942e-013 -17.95 3.95239e-013 0.378016 -18.5374 -0.0251476 -3.43 2.13163e-014 6.21725e-015 -5.76584 -17.7346 -3.01605 -9.23706e-014 -18.47 -9.23706e-014 -1.07411 9.47257 -3.72865 -3.23297e-013 -17.95 -8.8729e-013 2.13303 -6.4768 -0.131937 1.88738e-015 4.57 1.06581e-014 -22.0313 -0.731498 -6.31309 4.32987e-015 6.57 -1.77636e-015 13.5639 5.81637 -9.04227 1.06 4.19 1.76 -12.8019 -0.895622 9.64909 5.81 -7.10543e-015 -1.15463e-014 27.0747 -32.4334 -47.1914 2.67164e-012 -12.08 -9.43245e-013 -2.38439 -15.0832 -7.74568 5.24807e-011 -9.82 -1.44627e-011 -1.60555e-010 7.13487e-010 1.28578e-009 -1.06 4.19 1.76 14.1292 0.399565 -1.35402 -6.06 0 7.54952e-015 -39.2198 -3.25589 14.7264 1.54188e-012 -11.08 7.30083e-013 10.7083 -1.75742 1.26643 2.68372e-011 -9.82 1.13869e-011 3.2844e-010 1.94701e-010 -1.83818e-009 1.0103e-014 4.05 -8.88178e-016 37.638 -16.8231 13.7788 3.27516e-014 5.19 -8.88178e-016 -20.4366 2.10553 23.9747 
6.74999 37.8746 -62.4503 7.89908 -2.91324 7.68704 3.43 2.13163e-014 -8.88178e-016 -11.259 -1.36975 4.42583 -5.28466e-014 -18.47 3.95239e-014 -3.36868 35.7826 -0.95342 -6.27942e-013 -17.95 3.95239e-013 0.715729 -20.0283 0.0479883 -3.43 2.13163e-014 6.21725e-015 -7.60546 -22.4254 -7.56796 -9.23706e-014 -18.47 -9.23706e-014 -3.14012 6.54517 -8.5537 -3.23297e-013 -17.95 -8.8729e-013 3.46574 -9.38507 -0.071713 1.88738e-015 4.57 1.06581e-014 -26.0053 -2.84961 -7.85804 4.32987e-015 6.57 -1.77636e-015 15.573 5.73996 -10.0501 1.06 4.19 1.76 -11.5643 -0.773172 9.3336 5.81 -7.10543e-015 -1.15463e-014 28.8585 -33.7755 -49.7745 2.67164e-012 -12.08 -9.43245e-013 -2.81535 -17.7668 -8.51474 5.24807e-011 -9.82 -1.44627e-011 -1.60555e-010 7.13487e-010 1.28578e-009 -1.06 4.19 1.76 13.8747 0.330227 -1.97982 -6.06 0 7.54952e-015 -39.8719 -1.05407 15.0938 1.54188e-012 -11.08 7.30083e-013 9.11899 -2.96908 1.36085 2.68372e-011 -9.82 1.13869e-011 3.2844e-010 1.94701e-010 -1.83818e-009 1.0103e-014 4.05 -8.88178e-016 37.7339 -15.9858 13.7813 3.27516e-014 5.19 -8.88178e-016 -21.0522 1.3101 24.3195 
